<svg id="visual" viewBox="0 0 900 600" width="900" height="600" xmlns="http://www.w3.org/2000/svg" xmlns:xlink="http://www.w3.org/1999/xlink" version="1.1"><path d="M0 73L13.7 79C27.3 85 54.7 97 82 95C109.3 93 136.7 77 163.8 64C191 51 218 41 245.2 42C272.3 43 299.7 55 327 54C354.3 53 381.7 39 409 34C436.3 29 463.7 33 491 43C518.3 53 545.7 69 573 75C600.3 81 627.7 77 654.8 79C682 81 709 89 736.2 85C763.3 81 790.7 65 818 57C845.3 49 872.7 49 886.3 49L900 49L900 0L886.3 0C872.7 0 845.3 0 818 0C790.7 0 763.3 0 736.2 0C709 0 682 0 654.8 0C627.7 0 600.3 0 573 0C545.7 0 518.3 0 491 0C463.7 0 436.3 0 409 0C381.7 0 354.3 0 327 0C299.7 0 272.3 0 245.2 0C218 0 191 0 163.8 0C136.7 0 109.3 0 82 0C54.7 0 27.3 0 13.7 0L0 0Z" fill="#6f94d0"></path><path d="M0 175L13.7 169C27.3 163 54.7 151 82 149C109.3 147 136.7 155 163.8 145C191 135 218 107 245.2 110C272.3 113 299.7 147 327 153C354.3 159 381.7 137 409 134C436.3 131 463.7 147 491 154C518.3 161 545.7 159 573 151C600.3 143 627.7 129 654.8 128C682 127 709 139 736.2 139C763.3 139 790.7 127 818 128C845.3 129 872.7 143 886.3 150L900 157L900 47L886.3 47C872.7 47 845.3 47 818 55C790.7 63 763.3 79 736.2 83C709 87 682 79 654.8 77C627.7 75 600.3 79 573 73C545.7 67 518.3 51 491 41C463.7 31 436.3 27 409 32C381.7 37 354.3 51 327 52C299.7 53 272.3 41 245.2 40C218 39 191 49 163.8 62C136.7 75 109.3 91 82 93C54.7 95 27.3 83 13.7 77L0 71Z" fill="#8ea8da"></path><path d="M0 385L13.7 385C27.3 385 54.7 385 82 386C109.3 387 136.7 389 163.8 367C191 345 218 299 245.2 303C272.3 307 299.7 361 327 374C354.3 387 381.7 359 409 343C436.3 327 463.7 323 491 316C518.3 309 545.7 299 573 294C600.3 289 627.7 289 654.8 282C682 275 709 261 736.2 273C763.3 285 790.7 323 818 329C845.3 335 872.7 309 886.3 296L900 283L900 155L886.3 148C872.7 141 845.3 127 818 126C790.7 125 763.3 137 736.2 137C709 137 682 125 654.8 126C627.7 127 600.3 141 573 149C545.7 157 518.3 159 491 152C463.7 145 436.3 129 409 132C381.7 135 354.3 157 327 151C299.7 145 272.3 111 245.2 108C218 105 191 133 163.8 143C136.7 153 109.3 145 82 147C54.7 149 27.3 161 13.7 167L0 173Z" fill="#abbde3"></path><path d="M0 451L13.7 453C27.3 455 54.7 459 82 461C109.3 463 136.7 463 163.8 452C191 441 218 419 245.2 417C272.3 415 299.7 433 327 441C354.3 449 381.7 447 409 446C436.3 445 463.7 445 491 440C518.3 435 545.7 425 573 415C600.3 405 627.7 395 654.8 383C682 371 709 357 736.2 366C763.3 375 790.7 407 818 415C845.3 423 872.7 407 886.3 399L900 391L900 281L886.3 294C872.7 307 845.3 333 818 327C790.7 321 763.3 283 736.2 271C709 259 682 273 654.8 280C627.7 287 600.3 287 573 292C545.7 297 518.3 307 491 314C463.7 321 436.3 325 409 341C381.7 357 354.3 385 327 372C299.7 359 272.3 305 245.2 301C218 297 191 343 163.8 365C136.7 387 109.3 385 82 384C54.7 383 27.3 383 13.7 383L0 383Z" fill="#c7d3ed"></path><path d="M0 541L13.7 532C27.3 523 54.7 505 82 496C109.3 487 136.7 487 163.8 487C191 487 218 487 245.2 487C272.3 487 299.7 487 327 484C354.3 481 381.7 475 409 476C436.3 477 463.7 485 491 486C518.3 487 545.7 481 573 475C600.3 469 627.7 463 654.8 456C682 449 709 441 736.2 449C763.3 457 790.7 481 818 488C845.3 495 872.7 485 886.3 480L900 475L900 389L886.3 397C872.7 405 845.3 421 818 413C790.7 405 763.3 373 736.2 364C709 355 682 369 654.8 381C627.7 393 600.3 403 573 413C545.7 423 518.3 433 491 438C463.7 443 436.3 443 409 444C381.7 445 354.3 447 327 439C299.7 431 272.3 413 245.2 415C218 417 191 439 163.8 450C136.7 461 109.3 461 82 459C54.7 457 27.3 453 13.7 451L0 449Z" fill="#e3e9f6"></path><path d="M0 601L13.7 601C27.3 601 54.7 601 82 601C109.3 601 136.7 601 163.8 601C191 601 218 601 245.2 601C272.3 601 299.7 601 327 601C354.3 601 381.7 601 409 601C436.3 601 463.7 601 491 601C518.3 601 545.7 601 573 601C600.3 601 627.7 601 654.8 601C682 601 709 601 736.2 601C763.3 601 790.7 601 818 601C845.3 601 872.7 601 886.3 601L900 601L900 473L886.3 478C872.7 483 845.3 493 818 486C790.7 479 763.3 455 736.2 447C709 439 682 447 654.8 454C627.7 461 600.3 467 573 473C545.7 479 518.3 485 491 484C463.7 483 436.3 475 409 474C381.7 473 354.3 479 327 482C299.7 485 272.3 485 245.2 485C218 485 191 485 163.8 485C136.7 485 109.3 485 82 494C54.7 503 27.3 521 13.7 530L0 539Z" fill="#ffffff"></path></svg>